<?xml version="1.0" encoding="UTF-8" standalone="no" ?>
<!DOCTYPE svg PUBLIC "-//W3C//DTD SVG 1.1//EN" "http://www.w3.org/Graphics/SVG/1.1/DTD/svg11.dtd">
<svg xmlns="http://www.w3.org/2000/svg" xmlns:xlink="http://www.w3.org/1999/xlink" version="1.1" width="200" height="200" viewBox="232.75990000000002 174.18034832849935 67.48019999999997 71.6393033430013" xml:space="preserve">
<desc>Created with Fabric.js 5.3.0</desc>
<defs>
</defs>
<g transform="matrix(1 0 0 1 266.5 210)"  >
<g style=""   >
		<g transform="matrix(0.09 0 0 0.09 0 -16.25)" id="fgh"  >
<path style="stroke: none; stroke-width: 1; stroke-dasharray: none; stroke-linecap: butt; stroke-dashoffset: 0; stroke-linejoin: miter; stroke-miterlimit: 4; fill: rgb(255,255,255); fill-rule: nonzero; opacity: 1;"  transform=" translate(-949.32, -946.35)" d="M 949.33 1163.25 C 845.8580544408708 1163.249417697011 756.7954983303965 1090.1574661712932 736.6088253007067 988.673764277231 C 716.4221522710168 887.1900623831688 770.7335496377514 785.5788209044728 866.3287070552926 745.9807225101558 C 961.9238644728339 706.3826241158389 1072.1785888074714 739.826129324807 1129.6662475534442 825.8587545900928 C 1187.1539062994168 911.8913798553785 1175.8636201339111 1026.5521914566848 1102.7 1099.72 C 1062.1156145076584 1140.53378251026 1006.8872002855805 1163.4108846523254 949.33 1163.25 Z M 949.33 789.47 C 862.82 789.47 792.44 859.85 792.44 946.36 C 792.44 1032.87 862.82 1103.25 949.33 1103.25 C 1035.8400000000001 1103.25 1106.22 1032.87 1106.22 946.36 C 1106.22 859.8500000000001 1035.84 789.47 949.33 789.47 Z" stroke-linecap="round" />
</g>
		<g transform="matrix(0.09 0 0 0.09 0 17.58)" id="fgh"  >
<path style="stroke: none; stroke-width: 1; stroke-dasharray: none; stroke-linecap: butt; stroke-dashoffset: 0; stroke-linejoin: miter; stroke-miterlimit: 4; fill: rgb(255,255,255); fill-rule: nonzero; opacity: 1;"  transform=" translate(-949.33, -1322.25)" d="M 1293.72 1524.44 C 1277.1514575050762 1524.44 1263.72 1511.0085424949239 1263.72 1494.44 C 1263.72 1321.0900000000001 1122.72 1180.0500000000002 949.33 1180.0500000000002 C 775.94 1180.0500000000002 634.94 1321.0500000000002 634.94 1494.44 C 634.94 1511.0085424949239 621.5085424949239 1524.44 604.94 1524.44 C 588.3714575050763 1524.44 574.94 1511.0085424949239 574.94 1494.44 C 574.94 1287.6701125108493 742.5601125108493 1120.0500000000002 949.33 1120.0500000000002 C 1156.0998874891507 1120.0500000000002 1323.72 1287.6701125108493 1323.72 1494.44 C 1323.72 1511.0085424949239 1310.2885424949238 1524.44 1293.72 1524.44 Z" stroke-linecap="round" />
</g>
</g>
</g>
</svg>